:SAMPLES-PER-SECOND 30
:FRAME-RANGE 1-2643
:FULLY-SPECIFIED
:DEGREES
2065
root  -17.795 34.8167 -36.5925 -166.804 -75.5434 163.533
RightUpLeg  -36.5792 -20.0111 -9.18674
RightLeg  53.7362 -7.93996 -11.8448
RightFoot  -9.86757 -0.162365 7.39445
RightToes  7.56698e-010 0 -3.6325e-017
Spine  27.1773 -0.410721 5.91209
Spine1  -2.5698 0.729209 3.64694
HEad  -8.47964 -34.5445 8.60969
LeftShoulder1  1.46404 -1.36601 -23.8129
LeftArm  19.5046 -3.73692 -45.0292
LeftForeArm  28.2637 -34.0917 -5.95692
LeftHand  0.00720647 -2.2019 0.0728929
RightShoulder  7.60846 15.071 34.9832
RightArm  -0.483657 9.38143 12.1462
RightForeArm  23.5238 54.6147 13.9163
RightHand  -0.292163 1.28521 -5.21775
LeftUpLeg  -19.4999 -1.44244 20.4465
LeftLeg  55.3164 -2.96032 -4.11113
LeftFoot  -2.30469 0.755508 -9.3717
LeftToes  1.48244e-010 1.61973e-010 3.308e-011
2066
root  -18.4366 35.4806 -38.7416 -157.59 -78.0917 156.596
RightUpLeg  -35.997 -20.2361 -7.28305
RightLeg  53.8835 -8.72852 -13.0031
RightFoot  -11.852 -0.0434581 8.32294
RightToes  7.56698e-010 0 -3.6325e-017
Spine  26.9892 0.515099 4.83561
Spine1  -4.09076 0.991545 3.64694
HEad  -11.3075 -38.8736 11.9276
LeftShoulder1  1.29075 -0.934102 -22.7768
LeftArm  15.8293 -3.68354 -35.1623
LeftForeArm  20.2933 -27.6155 -4.85599
LeftHand  -0.00394423 -2.08681 0.238087
RightShoulder  7.45109 14.672 35.0214
RightArm  -2.66393 9.63179 11.0966
RightForeArm  24.1642 53.6923 13.3471
RightHand  -0.348693 1.35561 -6.14336
LeftUpLeg  -26.8195 4.41444 15.6896
LeftLeg  52.2603 -4.73417 -6.08723
LeftFoot  -5.46739 0.790439 -14.7039
LeftToes  1.48244e-010 1.61973e-010 3.308e-011
2067
root  -18.9927 36.0449 -40.8526 -150.823 -79.8669 151.731
RightUpLeg  -36.7435 -21.8739 -4.95434
RightLeg  55.3926 -6.58814 -10.5747
RightFoot  -10.942 -0.113769 11.2151
RightToes  7.56698e-010 0 -3.6325e-017
Spine  27.5192 1.38259 3.76666
Spine1  -5.15513 1.52508 2.82926
HEad  -14.5209 -42.1155 15.7835
LeftShoulder1  1.1655 -0.727841 -21.1387
LeftArm  13.1004 -2.87761 -26.5227
LeftForeArm  7.69371 -24.2678 -4.79005
LeftHand  0.00746261 -2.0612 0.0583411
RightShoulder  7.6985 15.3452 34.8627
RightArm  -5.36835 10.538 10.1408
RightForeArm  23.9868 51.1743 12.0865
RightHand  -0.358419 1.49665 -6.19313
LeftUpLeg  -33.0972 11.2951 8.86172
LeftLeg  47.4022 -6.84096 -7.49854
LeftFoot  -9.25426 0.382355 -17.8389
LeftToes  1.48244e-010 1.61973e-010 3.308e-011
2068
root  -19.521 36.3807 -42.7607 -151.71 -80.7759 154.183
RightUpLeg  -39.8207 -24.5557 -2.5182
RightLeg  59.981 -1.94572 -4.15276
RightFoot  -5.08986 -0.896489 15.6869
RightToes  7.56698e-010 0 -3.6325e-017
Spine  28.185 2.4932 3.26625
Spine1  -5.47779 2.68477 2.2186
HEad  -17.8115 -44.8164 19.6983
LeftShoulder1  1.1043 -0.747009 -19.4666
LeftArm  11.5721 -1.21037 -21.1714
LeftForeArm  3.2776 -22.9028 -4.94067
LeftHand  -0.123918 -1.06145 2.34745
RightShoulder  8.03666 16.6459 33.8942
RightArm  -8.28267 12.2025 8.76815
RightForeArm  23.3385 47.2575 10.4328
RightHand  -0.388741 1.66141 -6.5609
LeftUpLeg  -37.8509 17.4823 1.97998
LeftLeg  42.8057 -11.5962 -10.9139
LeftFoot  -12.7065 -0.217851 -24.2849
LeftToes  1.48244e-010 1.61973e-010 3.308e-011
2069
root  -20.1927 36.2421 -44.4916 -162.999 -81.3978 165.91
RightUpLeg  -42.7255 -25.2256 -2.10078
RightLeg  67.0296 3.49215 8.35291
RightFoot  4.27901 -2.50462 18.3321
RightToes  7.56698e-010 0 -3.6325e-017
Spine  28.6626 3.18105 3.54658
Spine1  -4.9448 3.67083 2.5238
HEad  -19.6348 -46.3819 22.0656
LeftShoulder1  1.03371 -0.658917 -18.2323
LeftArm  10.1243 3.19301 -18.1318
LeftForeArm  3.37177 -24.6599 -5.1021
LeftHand  -0.197826 -0.198607 4.16609
RightShoulder  8.60702 18.6375 32.8512
RightArm  -10.5066 15.1928 6.11802
RightForeArm  22.5905 41.5913 8.45372
RightHand  -0.405935 1.76625 -6.75189
LeftUpLeg  -39.7574 18.2348 -0.346336
LeftLeg  41.8533 -18.9587 -16.9903
LeftFoot  -13.7221 -0.566406 -30.486
LeftToes  1.48244e-010 1.61973e-010 3.308e-011
2070
root  -20.9787 35.5566 -46.2465 -168.591 -81.4199 170.214
RightUpLeg  -42.2162 -24.0973 -6.44025
RightLeg  72.8994 4.74502 16.1517
RightFoot  3.90127 -3.69868 27.3551
RightToes  7.56698e-010 0 -3.6325e-017
Spine  29.4277 3.56025 1.31861
Spine1  -4.32272 4.06344 2.52588
HEad  -19.0529 -47.4554 22.5
LeftShoulder1  0.973171 -0.475866 -17.8211
LeftArm  6.49855 10.4688 -16.105
LeftForeArm  6.12944 -28.6748 -5.87909
LeftHand  -0.175145 -0.237436 3.66974
RightShoulder  8.65167 20.3351 30.2149
RightArm  -11.1659 19.1023 5.2392
RightForeArm  21.106 34.631 6.51877
RightHand  -0.369886 0.665508 -7.18738
LeftUpLeg  -39.6337 11.8428 0.801371
LeftLeg  44.8323 -15.6249 -15.632
LeftFoot  -6.94802 0.239485 -5.15584
LeftToes  1.48244e-010 1.61973e-010 3.308e-011
2071
root  -21.8161 34.7538 -47.7681 177.52 -79.7975 -178.16
RightUpLeg  -41.3483 -22.3242 -10.6963
RightLeg  75.5897 1.8338 7.06935
RightFoot  2.8423 -2.62169 21.0122
RightToes  7.56698e-010 0 -3.6325e-017
Spine  31.8587 3.87147 2.94868
Spine1  -5.31235 4.51491 3.08749
HEad  -18.3046 -49.0847 23.4021
LeftShoulder1  0.876292 -0.0857942 -17.7725
LeftArm  5.13145 15.8508 -15.9797
LeftForeArm  6.64417 -29.9718 -6.16495
LeftHand  -0.154259 -0.539384 3.10015
RightShoulder  8.24653 21.7531 26.4428
RightArm  -10.6911 21.8762 4.63089
RightForeArm  19.5671 28.6053 5.12287
RightHand  -0.309292 1.73587 -5.20336
LeftUpLeg  -38.1963 4.29758 8.58247
LeftLeg  50.677 -9.45228 -11.71
LeftFoot  -13.0531 -0.0847212 -10.866
LeftToes  1.48244e-010 1.61973e-010 3.308e-011
2072
root  -22.5935 34.1127 -49.2694 175.667 -77.8238 -177.758
RightUpLeg  -40.758 -20.9847 -16.1494
RightLeg  72.6703 -0.495063 -2.77681
RightFoot  0.334487 -1.57072 15.3008
RightToes  7.56698e-010 0 -3.6325e-017
Spine  32.8714 3.98031 4.55916
Spine1  -5.10726 5.16358 1.98037
HEad  -20.0344 -50.8965 25.5205
LeftShoulder1  0.886083 -0.00304797 -18.6945
LeftArm  5.87401 17.3088 -17.4305
LeftForeArm  4.18984 -27.5723 -5.723
LeftHand  -0.121378 -0.22606 2.55571
RightShoulder  7.42353 22.8231 21.7421
RightArm  -11.0137 23.2543 3.43705
RightForeArm  17.0623 23.2532 4.14853
RightHand  -0.256747 1.67325 -4.3797
LeftUpLeg  -36.3135 3.3368 12.1459
LeftLeg  54.528 -7.68368 -10.9478
LeftFoot  -16.0077 -0.346111 -10.8171
LeftToes  1.48244e-010 1.61973e-010 3.308e-011
